<svg xmlns="http://www.w3.org/2000/svg" viewBox="0 0 64 64" fill="none">
  <defs>
    <linearGradient id="g" x1="0" y1="0" x2="64" y2="64" gradientUnits="userSpaceOnUse">
      <stop offset="0" stop-color="#1E40AF"/>
      <stop offset="1" stop-color="#059669"/>
    </linearGradient>
  </defs>
  <rect width="64" height="64" rx="14" fill="url(#g)"/>
  <path d="M44 22c-2.7-2.7-6.4-4.2-10.2-4.2-7.9 0-14.4 6.4-14.4 14.3 0 2.5.7 5 1.9 7.2L19 46l6.8-1.8c2.1 1.1 4.5 1.7 6.9 1.7h0c7.9 0 14.4-6.4 14.4-14.3 0-3.8-1.5-7.4-4.1-10.1zm-10.2 22c-2.2 0-4.3-.6-6.1-1.7l-.4-.3-4.5 1.2 1.2-4.4-.3-.4c-1.2-2-1.8-4.2-1.8-6.5 0-6.5 5.3-11.8 11.9-11.8 3.2 0 6.1 1.2 8.4 3.5 2.2 2.2 3.5 5.2 3.5 8.4 0 6.5-5.3 11.8-11.9 11.8z" fill="#fff"/>
  <path d="M40.3 35c-.4-.2-2.3-1.1-2.6-1.3-.4-.1-.6-.2-.9.2-.2.4-1 1.3-1.2 1.5-.2.2-.5.3-.8.1-.4-.2-1.6-.6-3.1-1.9-1.1-1-1.9-2.2-2.1-2.6-.2-.4 0-.6.2-.8.2-.2.4-.5.6-.7.2-.2.2-.4.4-.6.1-.2.1-.5 0-.7-.1-.2-.9-2.1-1.2-2.9-.3-.8-.6-.7-.9-.7h-.7c-.2 0-.6.1-.9.5-.3.4-1.2 1.2-1.2 2.9 0 1.7 1.2 3.4 1.4 3.6.2.2 2.4 3.7 5.9 5.2.8.4 1.5.6 2 .7.8.3 1.6.2 2.2.1.7-.1 2.3-.9 2.6-1.8.3-.9.3-1.7.2-1.8-.1-.2-.4-.3-.8-.5z" fill="#fff"/>
</svg>
