<svg xmlns="http://www.w3.org/2000/svg" viewBox="0 0 1200 630" fill="none">
  <defs>
    <linearGradient id="bg" x1="0" y1="0" x2="1200" y2="630" gradientUnits="userSpaceOnUse">
      <stop offset="0" stop-color="#0F172A"/>
      <stop offset=".55" stop-color="#1E3A8A"/>
      <stop offset="1" stop-color="#047857"/>
    </linearGradient>
    <radialGradient id="glow" cx="0" cy="0" r="1" gradientTransform="translate(960 120) scale(420)" gradientUnits="userSpaceOnUse">
      <stop stop-color="#10B981" stop-opacity=".45"/>
      <stop offset="1" stop-color="#10B981" stop-opacity="0"/>
    </radialGradient>
    <radialGradient id="glow2" cx="0" cy="0" r="1" gradientTransform="translate(220 540) scale(380)" gradientUnits="userSpaceOnUse">
      <stop stop-color="#3B82F6" stop-opacity=".4"/>
      <stop offset="1" stop-color="#3B82F6" stop-opacity="0"/>
    </radialGradient>
  </defs>

  <rect width="1200" height="630" fill="url(#bg)"/>
  <rect width="1200" height="630" fill="url(#glow)"/>
  <rect width="1200" height="630" fill="url(#glow2)"/>

  <!-- Logo + brand -->
  <g transform="translate(80 80)">
    <rect width="64" height="64" rx="14" fill="#10B981"/>
    <path d="M44 22c-2.7-2.7-6.4-4.2-10.2-4.2-7.9 0-14.4 6.4-14.4 14.3 0 2.5.7 5 1.9 7.2L19 46l6.8-1.8c2.1 1.1 4.5 1.7 6.9 1.7 7.9 0 14.4-6.4 14.4-14.3 0-3.8-1.5-7.4-4.1-10.1zm-10.2 22c-2.2 0-4.3-.6-6.1-1.7l-.4-.3-4.5 1.2 1.2-4.4-.3-.4c-1.2-2-1.8-4.2-1.8-6.5 0-6.5 5.3-11.8 11.9-11.8 3.2 0 6.1 1.2 8.4 3.5 2.2 2.2 3.5 5.2 3.5 8.4 0 6.5-5.3 11.8-11.9 11.8z" fill="#fff"/>
    <path d="M40.3 35c-.4-.2-2.3-1.1-2.6-1.3-.4-.1-.6-.2-.9.2-.2.4-1 1.3-1.2 1.5-.2.2-.5.3-.8.1-.4-.2-1.6-.6-3.1-1.9-1.1-1-1.9-2.2-2.1-2.6-.2-.4 0-.6.2-.8.2-.2.4-.5.6-.7.2-.2.2-.4.4-.6.1-.2.1-.5 0-.7-.1-.2-.9-2.1-1.2-2.9-.3-.8-.6-.7-.9-.7h-.7c-.2 0-.6.1-.9.5-.3.4-1.2 1.2-1.2 2.9 0 1.7 1.2 3.4 1.4 3.6.2.2 2.4 3.7 5.9 5.2.8.4 1.5.6 2 .7.8.3 1.6.2 2.2.1.7-.1 2.3-.9 2.6-1.8.3-.9.3-1.7.2-1.8-.1-.2-.4-.3-.8-.5z" fill="#fff"/>
    <text x="84" y="44" font-family="Plus Jakarta Sans, system-ui, -apple-system, sans-serif" font-size="40" font-weight="800" fill="#fff" letter-spacing="-1">Cobrai</text>
  </g>

  <!-- Headline -->
  <g transform="translate(80 220)">
    <text font-family="Plus Jakarta Sans, system-ui, -apple-system, sans-serif" font-size="72" font-weight="800" fill="#fff" letter-spacing="-2">
      <tspan x="0" y="0">Cobrá expensas y</tspan>
      <tspan x="0" y="86">cuotas por WhatsApp</tspan>
    </text>
    <text x="0" y="200" font-family="Plus Jakarta Sans, system-ui, -apple-system, sans-serif" font-size="28" font-weight="500" fill="#CBD5E1" letter-spacing="-.3">
      Sin perseguir a nadie. Recordatorios, portal de pago y dashboard en tiempo real.
    </text>
  </g>

  <!-- Pills -->
  <g transform="translate(80 500)" font-family="Plus Jakarta Sans, system-ui, -apple-system, sans-serif" font-weight="600" font-size="18">
    <g>
      <rect width="240" height="48" rx="24" fill="#10B981"/>
      <text x="120" y="31" text-anchor="middle" fill="#0F172A">✓ 30 días gratis</text>
    </g>
    <g transform="translate(260 0)">
      <rect width="220" height="48" rx="24" fill="rgba(255,255,255,.1)" stroke="rgba(255,255,255,.25)"/>
      <text x="110" y="31" text-anchor="middle" fill="#fff">WhatsApp Business</text>
    </g>
    <g transform="translate(500 0)">
      <rect width="200" height="48" rx="24" fill="rgba(255,255,255,.1)" stroke="rgba(255,255,255,.25)"/>
      <text x="100" y="31" text-anchor="middle" fill="#fff">Hecho en 🇦🇷</text>
    </g>
  </g>

  <!-- Decorative phone mockup right side -->
  <g transform="translate(820 130)" opacity=".95">
    <rect x="0" y="0" width="280" height="420" rx="32" fill="#0B1220" stroke="rgba(255,255,255,.1)"/>
    <rect x="14" y="14" width="252" height="392" rx="22" fill="#0F172A"/>
    <!-- WhatsApp header -->
    <rect x="14" y="14" width="252" height="56" rx="22" fill="#075E54"/>
    <circle cx="44" cy="42" r="14" fill="#10B981"/>
    <rect x="68" y="32" width="120" height="8" rx="4" fill="#fff"/>
    <rect x="68" y="46" width="80" height="6" rx="3" fill="rgba(255,255,255,.6)"/>

    <!-- Messages -->
    <g transform="translate(28 90)">
      <rect width="180" height="56" rx="14" fill="#1E293B"/>
      <rect x="14" y="14" width="140" height="6" rx="3" fill="#fff"/>
      <rect x="14" y="28" width="120" height="6" rx="3" fill="rgba(255,255,255,.7)"/>
      <rect x="14" y="42" width="80" height="6" rx="3" fill="rgba(255,255,255,.5)"/>
    </g>
    <g transform="translate(60 168)">
      <rect width="180" height="56" rx="14" fill="#10B981"/>
      <rect x="14" y="14" width="140" height="6" rx="3" fill="#fff"/>
      <rect x="14" y="28" width="120" height="6" rx="3" fill="rgba(255,255,255,.85)"/>
      <rect x="14" y="42" width="80" height="6" rx="3" fill="rgba(255,255,255,.65)"/>
    </g>
    <g transform="translate(28 246)">
      <rect width="200" height="40" rx="14" fill="#1E293B"/>
      <rect x="14" y="14" width="160" height="6" rx="3" fill="#fff"/>
      <rect x="14" y="26" width="100" height="6" rx="3" fill="rgba(255,255,255,.7)"/>
    </g>
    <!-- Pay link card -->
    <g transform="translate(28 304)">
      <rect width="224" height="78" rx="14" fill="#fff"/>
      <rect x="14" y="14" width="120" height="8" rx="4" fill="#0F172A"/>
      <rect x="14" y="30" width="160" height="6" rx="3" fill="#64748B"/>
      <rect x="14" y="50" width="100" height="14" rx="7" fill="#059669"/>
    </g>
  </g>
</svg>
